<?xml version="1.0" standalone="no"?>
<!DOCTYPE svg PUBLIC "-//W3C//DTD SVG 20010904//EN"
 "http://www.w3.org/TR/2001/REC-SVG-20010904/DTD/svg10.dtd">
<svg version="1.0" xmlns="http://www.w3.org/2000/svg"
 width="1000.000000pt" height="1000.000000pt" viewBox="0 0 1000.000000 1000.000000"
 preserveAspectRatio="xMidYMid meet">

<g transform="translate(0.000000,1000.000000) scale(0.100000,-0.100000)"
fill="#000000" stroke="none">
<path d="M2100 6390 l0 -740 305 0 305 0 2 316 3 315 245 -315 245 -315 348 0
348 -1 -15 23 c-9 12 -258 345 -553 739 l-538 717 -347 1 -348 0 0 -740z"/>
<path d="M4050 6390 l0 -740 305 0 305 0 0 740 0 740 -305 0 -305 0 0 -740z"/>
<path d="M5130 6390 l0 -740 330 0 330 0 0 740 0 740 -330 0 -330 0 0 -740z"/>
<path d="M6990 6390 l0 -740 335 0 335 0 0 740 0 740 -335 0 -335 0 0 -740z"/>
<path d="M8879 5810 c-30 -22 -58 -43 -64 -47 -5 -4 -22 -14 -37 -22 -16 -8
-28 -18 -28 -23 0 -4 -4 -8 -10 -8 -5 0 -56 -29 -112 -65 -138 -88 -562 -298
-698 -345 -19 -7 -44 -16 -55 -21 -11 -4 -52 -18 -92 -29 l-72 -22 -16 -69
c-37 -166 -99 -281 -214 -402 -222 -233 -546 -343 -1039 -354 -251 -6 -388 5
-562 43 -248 56 -409 135 -554 273 -160 154 -242 343 -253 587 l-6 110 -61 13
c-33 6 -83 18 -111 26 -27 8 -68 16 -90 19 -22 4 -50 9 -62 12 l-23 6 0 -465
0 -466 32 -15 c17 -9 39 -16 49 -16 10 0 21 -4 24 -10 3 -5 15 -10 26 -10 10
0 27 -4 37 -9 23 -12 56 -25 122 -51 79 -32 91 -36 135 -55 22 -9 49 -20 60
-25 11 -4 36 -14 55 -21 19 -7 82 -35 140 -62 107 -50 200 -79 300 -92 30 -4
60 -11 65 -15 17 -13 272 -25 445 -22 206 5 353 16 450 37 41 8 95 19 120 25
109 22 143 31 268 70 206 63 409 149 577 245 28 15 65 37 84 47 39 22 184 119
191 128 3 3 21 17 40 30 19 13 37 27 40 30 3 3 23 18 45 34 199 146 518 481
710 746 22 30 50 68 62 85 13 16 30 45 40 63 9 17 20 32 25 32 4 0 8 5 8 12 0
6 8 21 19 32 22 25 55 76 49 76 -2 0 -29 -18 -59 -40z"/>
<path d="M3139 5536 c-2 -3 -72 -17 -154 -31 -83 -14 -165 -29 -182 -32 l-33
-6 0 -248 0 -249 78 0 c81 0 205 -12 382 -36 58 -8 132 -19 165 -23 79 -11
237 -41 246 -47 10 -6 99 -22 99 -18 0 2 -120 158 -266 346 -242 313 -269 343
-298 346 -17 2 -34 1 -37 -2z"/>
<path d="M1916 5164 c-60 -30 -128 -66 -152 -79 -24 -14 -65 -37 -91 -52 -27
-14 -61 -34 -78 -43 -95 -53 -419 -279 -411 -287 1 -1 33 13 72 31 165 80 544
180 749 198 l30 3 3 143 c1 78 -1 142 -5 142 -5 0 -57 -25 -117 -56z"/>
<path d="M5975 5111 c42 -45 109 -86 185 -112 57 -20 84 -23 215 -23 161 1
244 15 332 56 l48 23 -205 6 c-206 7 -424 35 -575 74 l-30 8 30 -32z"/>
<path d="M2770 4657 c0 -117 -2 -136 -18 -150 -17 -15 -56 -17 -349 -17 -307
0 -331 1 -346 18 -14 15 -17 40 -17 120 0 62 -4 102 -10 102 -12 0 -186 -57
-280 -92 -175 -65 -408 -212 -553 -348 -27 -25 -55 -49 -63 -53 -8 -4 -14 -13
-14 -18 0 -6 15 -2 33 9 54 34 208 80 347 102 110 19 492 15 605 -5 172 -30
210 -37 260 -45 28 -4 84 -17 125 -29 41 -11 95 -26 120 -32 25 -6 87 -24 138
-40 51 -16 100 -29 108 -29 8 0 22 -4 32 -9 53 -26 114 -51 128 -51 8 0 34 -9
56 -20 23 -11 47 -20 54 -20 7 0 38 -13 69 -30 31 -16 64 -30 72 -30 8 0 27
-6 41 -14 41 -22 117 -56 126 -56 4 0 51 -21 104 -46 53 -25 120 -55 147 -67
28 -11 66 -29 85 -40 54 -29 99 -52 180 -92 130 -65 335 -177 338 -186 2 -5 8
-9 14 -9 5 0 28 -13 51 -28 23 -16 74 -46 112 -67 39 -22 72 -41 75 -45 5 -5
71 -45 180 -109 30 -18 69 -41 87 -52 43 -27 250 -105 331 -125 37 -9 81 -20
97 -25 29 -8 151 -31 335 -63 53 -9 156 -15 275 -15 439 -2 717 59 1089 238
146 71 334 184 366 221 3 3 37 30 75 59 62 48 300 273 360 341 110 123 176
205 198 243 9 18 24 37 31 43 8 6 50 62 92 125 42 63 84 122 92 132 28 32 -6
17 -60 -26 -29 -24 -80 -57 -113 -74 -33 -16 -105 -52 -160 -80 -228 -115
-432 -196 -615 -243 -25 -7 -53 -16 -62 -21 -10 -5 -27 -9 -37 -9 -11 0 -22
-4 -25 -9 -3 -5 -18 -11 -33 -14 -16 -3 -50 -11 -78 -17 -141 -32 -351 -60
-515 -68 -171 -8 -466 1 -575 18 -207 33 -381 71 -458 101 -26 11 -65 23 -85
28 -116 28 -411 157 -582 253 -110 62 -183 98 -295 148 -66 29 -124 56 -130
60 -10 8 -59 28 -170 71 -27 10 -67 19 -89 19 -28 0 -47 8 -73 30 -18 17 -39
30 -46 30 -7 0 -48 11 -92 24 -148 45 -299 85 -400 106 -55 11 -140 29 -190
40 -88 20 -428 70 -472 70 -23 0 -23 -2 -23 -133z"/>
</g>
</svg>
